HIERARCHY
ROOT Hips
{
 OFFSET 0.000000 0.000000 0.000000
 CHANNELS 6 Xposition Yposition Zposition Yrotation Xrotation Zrotation
 JOINT Chest
 {
  OFFSET 0.000000 9.585900 0.002600
  CHANNELS 3 Yrotation Xrotation Zrotation
  JOINT Chest2
  {
   OFFSET 0.000000 9.601200 -0.005300
   CHANNELS 3 Yrotation Xrotation Zrotation
   JOINT Chest3
   {
    OFFSET 0.000000 9.561800 0.000000
    CHANNELS 3 Yrotation Xrotation Zrotation
    JOINT Chest4
    {
     OFFSET 0.000000 9.552100 0.000000
     CHANNELS 3 Yrotation Xrotation Zrotation
     JOINT Neck
     {
      OFFSET 0.000000 14.453000 0.000000
      CHANNELS 3 Yrotation Xrotation Zrotation
      JOINT Head
      {
       OFFSET 0.000000 8.936500 -0.011300
       CHANNELS 3 Yrotation Xrotation Zrotation
       End Site
       {
        OFFSET 0.000000 17.073600 -0.006000
       }
      }
     }
     JOINT RightCollar
     {
      OFFSET -2.921100 9.558500 0.000000
      CHANNELS 3 Yrotation Xrotation Zrotation
      JOINT RightShoulder
      {
       OFFSET -13.519700 0.000000 0.000000
       CHANNELS 3 Yrotation Xrotation Zrotation
       JOINT RightElbow
       {
        OFFSET 0.000000 -29.696600 0.000000
        CHANNELS 3 Yrotation Xrotation Zrotation
        JOINT RightWrist
        {
         OFFSET 0.000000 -24.004700 0.000000
         CHANNELS 3 Yrotation Xrotation Zrotation
         End Site
         {
          OFFSET 0.000000 -17.728500 0.000000
         }
        }
       }
      }
     }
     JOINT LeftCollar
     {
      OFFSET 2.921100 9.558500 0.000000
      CHANNELS 3 Yrotation Xrotation Zrotation
      JOINT LeftShoulder
      {
       OFFSET 13.519700 0.000000 0.000000
       CHANNELS 3 Yrotation Xrotation Zrotation
       JOINT LeftElbow
       {
        OFFSET 0.000000 -29.696600 0.000000
        CHANNELS 3 Yrotation Xrotation Zrotation
        JOINT LeftWrist
        {
         OFFSET 0.000000 -24.004700 0.000000
         CHANNELS 3 Yrotation Xrotation Zrotation
         End Site
         {
          OFFSET 0.000000 -17.728500 0.000000
         }
        }
       }
      }
     }
    }
   }
  }
 }
 JOINT RightHip
 {
  OFFSET -7.771700 -0.012900 -0.001300
  CHANNELS 3 Yrotation Xrotation Zrotation
  JOINT RightKnee
  {
   OFFSET 0.000000 -40.869800 0.001200
   CHANNELS 3 Yrotation Xrotation Zrotation
   JOINT RightAnkle
   {
    OFFSET 0.000000 -39.717900 0.002100
    CHANNELS 3 Yrotation Xrotation Zrotation
    JOINT RightToe
    {
     OFFSET 0.000000 -4.965400 11.033500
     CHANNELS 3 Yrotation Xrotation Zrotation
     End Site
     {
      OFFSET 0.000000 -1.423100 5.872300
     }
    }
   }
  }
 }
 JOINT LeftHip
 {
  OFFSET 7.771700 -0.012900 -0.001300
  CHANNELS 3 Yrotation Xrotation Zrotation
  JOINT LeftKnee
  {
   OFFSET 0.000000 -40.869800 0.001200
   CHANNELS 3 Yrotation Xrotation Zrotation
   JOINT LeftAnkle
   {
    OFFSET 0.000000 -39.717900 0.002100
    CHANNELS 3 Yrotation Xrotation Zrotation
    JOINT LeftToe
    {
     OFFSET 0.000000 -4.965400 11.033500
     CHANNELS 3 Yrotation Xrotation Zrotation
     End Site
     {
      OFFSET 0.000000 -1.423100 5.872300
     }
    }
   }
  }
 }
}
MOTION
Frames: 12
Frame Time: 0.008333
0.000000 85.388000 0.000000 0.000000 -5.767877 0.000000 0.000000 11.653817 0.000000 0.000000 -5.885947 0.000000 0.000000 -0.000000 0.000000 0.000000 -0.000000 0.000000 0.000000 12.528835 0.000000 0.000000 0.711642 0.000000 0.000000 -0.000000 0.000000 0.000000 0.000000 -90.000000 0.000000 -2.309062 0.000000 0.000000 2.309062 0.000000 0.000000 -0.000000 0.000000 0.000000 -0.000000 90.000000 0.000000 -2.309062 0.000000 0.000000 2.309062 0.000000 0.000000 8.520406 0.000000 0.000000 1.905762 0.000000 -0.000000 -4.658285 0.000000 0.000000 -0.000000 0.000000 0.000000 8.520406 0.000000 0.000000 1.905762 0.000000 -0.000000 -4.658285 0.000000 0.000000 -0.000000 0.000000
-84.730070 50.441111 -10.062783 156.439093 -2.657455 -0.140795 1.158362 3.197139 0.782728 0.021955 0.067682 0.004715 0.039370 0.121117 0.008432 1.052252 3.216283 0.252366 6.182426 16.749822 -0.896826 11.752997 -4.367454 -3.780592 -0.595596 -0.748407 -3.260955 -38.647971 -26.259222 -24.394085 -113.962532 -76.029753 107.970214 -6.083562 -9.781761 -42.971356 1.862600 -2.705643 4.178401 42.062006 -15.803212 23.723887 50.704341 -62.935789 -55.618260 3.221124 1.680988 4.313247 2.275173 -77.775226 3.116587 -136.161130 83.931461 -135.262325 -6.464830 -15.391527 1.232944 -0.017201 0.780388 -0.010876 -18.394041 -79.675932 41.332474 125.146319 77.926269 122.864604 -14.032910 -24.698718 -1.013378 -0.883416 -1.100217 -0.113692
-84.735815 50.433850 -10.085694 156.608586 -2.697692 -0.169473 1.255592 3.279384 0.825557 0.023532 0.069443 0.005358 0.042190 0.124194 0.009660 1.111575 3.247480 0.281738 6.026548 16.799195 -0.771354 11.418250 -4.302693 -3.491829 -0.624055 -0.756095 -3.332154 -38.978800 -26.066078 -24.549655 -114.796302 -75.651034 108.166106 -6.184511 -9.774582 -42.895893 1.861099 -2.711499 4.271997 42.215131 -15.540245 23.923607 50.680054 -63.832495 -55.167556 3.135572 1.715975 4.477293 1.795534 -77.739033 3.354731 -136.932318 83.910678 -136.030770 -6.412762 -15.430084 1.193743 -0.053163 0.756884 -0.018930 -18.390054 -79.680095 41.211350 125.357761 77.971102 123.092520 -14.100647 -24.685539 -1.015178 -0.817847 -1.105938 -0.102489
-84.747542 50.425812 -10.108132 156.810628 -2.717089 -0.198285 1.319208 3.342500 0.868893 0.024902 0.070937 0.006000 0.044623 0.126851 0.010863 1.161498 3.273528 0.310614 5.875725 16.853643 -0.653192 11.095307 -4.226309 -3.217951 -0.655086 -0.756719 -3.371784 -39.277298 -25.912665 -24.645193 -115.385842 -75.362301 108.216118 -6.268667 -9.756030 -42.808170 1.849931 -2.705983 4.348048 42.362988 -15.239024 24.093040 50.709071 -64.731833 -54.787545 3.060812 1.733036 4.639064 1.395655 -77.719820 3.507330 -137.487012 83.870471 -136.574074 -6.411326 -15.484708 1.162977 -0.032620 0.744358 -0.007521 -18.559686 -79.685457 41.185066 125.448315 77.985861 123.180964 -14.106464 -24.681603 -1.020343 -0.826085 -1.096578 -0.119253
-84.767309 50.417923 -10.138559 157.081317 -2.763736 -0.196212 1.308314 3.436153 0.880249 0.026070 0.072254 0.006650 0.046730 0.129262 0.012030 1.202856 3.297060 0.338700 5.729728 16.912157 -0.543083 10.784083 -4.140329 -2.960326 -0.689018 -0.754481 -3.381758 -39.548357 -25.799230 -24.667680 -115.751089 -75.167713 108.153426 -6.335981 -9.731061 -42.711499 1.825096 -2.683238 4.405324 42.517501 -14.908273 24.220947 50.796122 -65.592998 -54.504591 3.006437 1.730685 4.777183 0.942447 -77.673916 3.589046 -138.481172 83.828675 -137.557860 -6.377594 -15.569106 1.111011 -0.022549 0.726033 -0.006066 -18.570629 -79.678932 40.917415 125.491576 77.997662 123.231963 -14.163278 -24.649957 -1.020319 -0.773070 -1.108176 -0.116872
-84.791735 50.410028 -10.158930 157.341274 -2.752341 -0.216136 1.304739 3.470675 0.914846 0.027091 0.073450 0.007297 0.048517 0.131388 0.013111 1.237256 3.317899 0.364757 5.587869 16.976599 -0.441333 10.483248 -4.041273 -2.719313 -0.723274 -0.737738 -3.369909 -39.797528 -25.720917 -24.606571 -115.909221 -75.056007 107.994012 -6.386729 -9.701628 -42.609648 1.782154 -2.625240 4.446952 42.684376 -14.562899 24.290757 50.971259 -66.382494 -54.360830 2.979969 1.726212 4.880163 0.440732 -77.687039 3.741143 -139.332860 83.806318 -138.412754 -6.333845 -15.591155 1.076794 -0.030205 0.670189 -0.009549 -18.821647 -79.714003 40.894222 125.499041 78.007561 123.238554 -14.245361 -24.684635 -1.006864 -0.655797 -1.047345 -0.105256
-84.816444 50.403023 -10.179337 157.540356 -2.753047 -0.250379 1.356488 3.514266 0.967803 0.027967 0.074449 0.007835 0.050045 0.133096 0.014009 1.266747 3.334418 0.386525 5.450809 17.048979 -0.347055 10.193589 -3.925554 -2.493354 -0.753904 -0.698380 -3.338421 -40.026071 -25.668001 -24.469491 -115.864482 -75.007529 107.741429 -6.425399 -9.666309 -42.515888 1.722497 -2.518220 4.477231 42.859849 -14.219075 24.293568 51.247632 -67.070589 -54.376727 2.974222 1.730654 4.946043 0.016119 -77.686304 3.901181 -139.984589 83.785224 -139.063562 -6.308323 -15.635565 1.059328 -0.039944 0.655336 -0.012639 -19.134260 -79.715579 40.996873 125.489247 78.009269 123.218933 -14.325894 -24.687734 -0.990363 -0.559250 -1.028622 -0.085878
-84.846071 50.396893 -10.197481 157.745633 -2.745008 -0.275331 1.393723 3.547748 1.009348 0.028731 0.075217 0.008240 0.051374 0.134455 0.014766 1.292622 3.346762 0.403856 5.319064 17.129002 -0.259398 9.915861 -3.794032 -2.281145 -0.785471 -0.644554 -3.285078 -40.223118 -25.624038 -24.279143 -115.609543 -75.004159 107.389763 -6.457473 -9.626817 -42.446231 1.649582 -2.361166 4.494854 43.037540 -13.889905 24.229272 51.631600 -67.640375 -54.559158 2.982081 1.739377 4.979490 -0.313801 -77.692618 3.964120 -140.593025 83.766907 -139.666684 -6.286409 -15.683779 1.047090 -0.053419 0.652093 -0.015830 -19.352787 -79.754558 40.980338 125.429982 77.991041 123.181499 -14.404667 -24.658578 -0.963558 -0.529248 -1.032431 -0.108388
-84.882749 50.391144 -10.202165 158.025679 -2.662642 -0.300854 1.348797 3.505696 1.043568 0.029440 0.075884 0.008576 0.052610 0.135639 0.015378 1.316215 3.357167 0.417679 5.192392 17.214888 -0.178279 9.649840 -3.650166 -2.082545 -0.827493 -0.589033 -3.208646 -40.378202 -25.574164 -24.054214 -115.127433 -75.028725 106.920173 -6.484120 -9.586965 -42.400761 1.565292 -2.159423 4.497895 43.212792 -13.582724 24.097361 52.114510 -68.097967 -54.900471 3.001491 1.751668 4.993425 -0.665688 -77.772390 3.998606 -141.017859 83.741209 -140.089715 -6.302948 -15.729892 1.042050 -0.032950 0.654206 -0.004558 -19.601493 -79.907145 40.886736 125.221397 77.989464 123.037603 -14.377276 -24.575943 -0.935295 -0.538745 -1.053455 -0.140980
-84.909661 50.387064 -10.217297 158.205734 -2.677828 -0.352399 1.400242 3.557276 1.107988 0.030090 0.076567 0.008849 0.053821 0.136796 0.015847 1.338117 3.367771 0.428544 5.071165 17.305210 -0.103740 9.396241 -3.496536 -1.897840 -0.887956 -0.540179 -3.111668 -40.487880 -25.508505 -23.800084 -114.395869 -75.069438 106.315215 -6.507277 -9.549298 -42.381312 1.476389 -1.922389 4.490986 43.387736 -13.299593 23.895388 52.658525 -68.458619 -55.371345 3.028611 1.768801 5.004539 -1.040496 -77.752734 4.163779 -141.413249 83.721645 -140.483170 -6.309657 -15.756816 1.039131 -0.018442 0.638892 0.005036 -19.922442 -79.900589 41.002171 125.149752 77.970761 122.975690 -14.444095 -24.579846 -0.915374 -0.523279 -1.034141 -0.137072
-84.943982 50.383324 -10.223634 158.420181 -2.644904 -0.379370 1.408348 3.558040 1.142838 0.030735 0.077250 0.009121 0.054959 0.137978 0.016308 1.359411 3.378449 0.438637 4.955627 17.399310 -0.036616 9.155859 -3.334320 -1.728904 -0.968792 -0.496509 -3.001111 -40.550561 -25.419801 -23.514154 -113.407342 -75.124495 105.569360 -6.531507 -9.515012 -42.391333 1.396786 -1.663729 4.476851 43.565906 -13.035574 23.625195 53.206427 -68.731789 -55.925091 3.052245 1.787313 5.011347 -1.270849 -77.782552 4.134757 -141.945377 83.720549 -140.998764 -6.304418 -15.790379 1.037825 -0.023555 0.635398 0.005063 -20.131896 -79.982998 40.946691 125.007281 77.957221 122.879481 -14.473469 -24.528635 -0.879411 -0.449938 -1.037026 -0.160142
-84.981010 50.379699 -10.216527 158.659445 -2.548472 -0.413569 1.380449 3.489978 1.182011 0.031385 0.077910 0.009422 0.056068 0.139166 0.016791 1.380774 3.388872 0.449509 4.846784 17.496026 0.021770 8.931099 -3.165688 -1.578585 -1.063978 -0.447134 -2.886967 -40.567302 -25.303252 -23.192987 -112.161459 -75.189670 104.677840 -6.561855 -9.485085 -42.429374 1.340615 -1.396159 4.449437 43.743926 -12.785075 23.299092 53.707573 -68.928175 -56.516709 3.067601 1.800497 5.006585 -1.538038 -77.873222 4.126405 -142.367357 83.729680 -141.402610 -6.303721 -15.816819 1.032712 -0.034565 0.646055 -0.000681 -20.563947 -80.112854 41.100200 124.838825 77.992131 122.735939 -14.504663 -24.467133 -0.839106 -0.440561 -1.030461 -0.163764
